<?xml version="1.0" encoding="utf-8"?>
<!-- Generator: Adobe Illustrator 16.0.0, SVG Export Plug-In . SVG Version: 6.00 Build 0)  -->
<!DOCTYPE svg PUBLIC "-//W3C//DTD SVG 1.1//EN" "http://www.w3.org/Graphics/SVG/1.1/DTD/svg11.dtd">
<svg version="1.1" id="Layer_1" xmlns="http://www.w3.org/2000/svg" xmlns:xlink="http://www.w3.org/1999/xlink" x="0px" y="0px"
	 width="108.01px" height="73.31px" viewBox="0 0 108.01 73.31" enable-background="new 0 0 108.01 73.31" xml:space="preserve">
<g id="XMLID_1_">
	<g>
		<path fill="#2391EE" d="M108.01,49.99l-3.73,2.09c-3.81-6.9-6.63-8.16-14.32-6.39c-11.47,2.64-18.79-0.62-24.49-10.92
			c-3.71-6.72-8.49-8.85-15.97-7.12c-11.36,2.61-18.29-0.49-23.93-10.69c-3.76-6.79-7.58-8.49-15.15-6.75L9.48,6.04
			c9.2-2.12,15.07,0.25,19.82,8.84c4.47,8.09,9.18,10.91,19.27,8.59c9.56-2.2,16.1,1.01,20.64,9.21
			c4.65,8.42,10.07,11.09,19.81,8.84C98.59,39.32,103.27,41.41,108.01,49.99z"/>
		<path fill="#2391EE" d="M103.27,60.61l-3.73,2.09c-3.82-6.91-6.63-8.16-14.32-6.39c-11.47,2.64-18.79-0.63-24.49-10.92
			c-3.71-6.72-8.49-8.85-15.97-7.13c-11.36,2.61-18.3-0.48-23.94-10.68c-3.75-6.79-7.57-8.5-15.14-6.76l-0.94-4.17
			c9.2-2.11,15.07,0.26,19.82,8.84c4.47,8.09,9.18,10.92,19.26,8.6c9.57-2.2,16.11,1.01,20.65,9.21
			c4.65,8.42,10.06,11.08,19.81,8.84C93.85,49.94,98.53,52.02,103.27,60.61z"/>
		<path fill="#2391EE" d="M98.53,71.23l-3.73,2.08c-3.82-6.9-6.63-8.15-14.32-6.39C69.01,69.56,61.68,66.3,55.99,56
			c-3.71-6.71-8.49-8.85-15.97-7.12c-11.37,2.61-18.3-0.48-23.94-10.68c-3.75-6.8-7.57-8.5-15.14-6.76L0,27.27
			c9.2-2.11,15.07,0.25,19.82,8.84C24.29,44.2,29,47.02,39.08,44.7c9.57-2.2,16.11,1.01,20.64,9.21
			c4.66,8.43,10.07,11.09,19.82,8.84C89.11,60.55,93.79,62.64,98.53,71.23z"/>
	</g>
	<g>
	</g>
</g>
</svg>
