<?xml version="1.0" encoding="utf-8"?>
<!-- Generator: Adobe Illustrator 16.0.0, SVG Export Plug-In . SVG Version: 6.00 Build 0)  -->
<!DOCTYPE svg PUBLIC "-//W3C//DTD SVG 1.1//EN" "http://www.w3.org/Graphics/SVG/1.1/DTD/svg11.dtd">
<svg version="1.1" id="Layer_1" xmlns="http://www.w3.org/2000/svg" xmlns:xlink="http://www.w3.org/1999/xlink" x="0px" y="0px"
	 width="121.5px" height="160.5px" viewBox="0 0 121.5 160.5" enable-background="new 0 0 121.5 160.5" xml:space="preserve">
<title></title>
<g id="XMLID_1_">
	<g>
		<path fill="#443A8B" d="M100.864,40.185l14.025,83.693l-49.357,26.473c-3.069,1.655-6.813,1.655-9.883,0L6.722,123.877
			l88.426-85.456c0.497-0.471,1.131-0.787,1.82-0.897C98.809,37.225,100.555,38.416,100.864,40.185z"/>
		<path fill="#443A8B" d="M63.794,30.028l11.334,20.818L8.062,115.627l49.755-85.6c0.317-0.584,0.813-1.058,1.422-1.366
			C60.888,27.832,62.93,28.442,63.794,30.028z"/>
		<path fill="#443A8B" d="M31.35,9.838l15.837,28.524L10.303,101.81L25.03,10.868c0.28-1.771,2.001-2.988,3.843-2.719
			C29.933,8.303,30.851,8.931,31.35,9.838z"/>
	</g>
</g>
</svg>
