<?xml version="1.0" encoding="utf-8"?>
<!-- Generator: Adobe Illustrator 16.0.0, SVG Export Plug-In . SVG Version: 6.00 Build 0)  -->
<!DOCTYPE svg PUBLIC "-//W3C//DTD SVG 1.1//EN" "http://www.w3.org/Graphics/SVG/1.1/DTD/svg11.dtd">
<svg version="1.1" id="Layer_1" xmlns="http://www.w3.org/2000/svg" xmlns:xlink="http://www.w3.org/1999/xlink" x="0px" y="0px"
	 width="55.628px" height="66.985px" viewBox="0 0 55.628 66.985" enable-background="new 0 0 55.628 66.985" xml:space="preserve">
<g id="XMLID_1_">
	<g>
		<path fill="#76CAB9" d="M50.785-0.003l4.84,3.97c-1.98,2.4-4.88,4.06-8.76,5.05c-4.85,1.24-6.63,2.7-6.92,8.45
			c-0.42,8.08-4.6,13.19-12.45,15.19c-5.23,1.33-6.91,3.38-7.18,8.77c-0.23,4.35-1.26,7.5-3.36,9.82l7.63,6.24l-24.58,9.5
			l4.46-25.97l7.64,6.25c1.28-1.24,1.74-3.05,1.89-6.05c0.42-8.15,4.14-12.69,12.05-14.7c5.05-1.29,7.32-4.06,7.59-9.27
			c0.42-8.19,3.83-12.35,11.77-14.37C47.935,2.227,49.665,1.357,50.785-0.003z"/>
	</g>
	<g>
	</g>
</g>
</svg>
