<?xml version="1.0" encoding="utf-8"?>
<!-- Generator: Adobe Illustrator 16.0.0, SVG Export Plug-In . SVG Version: 6.00 Build 0)  -->
<!DOCTYPE svg PUBLIC "-//W3C//DTD SVG 1.1//EN" "http://www.w3.org/Graphics/SVG/1.1/DTD/svg11.dtd">
<svg version="1.1" id="Layer_1" xmlns="http://www.w3.org/2000/svg" xmlns:xlink="http://www.w3.org/1999/xlink" x="0px" y="0px"
	 width="92px" height="66.495px" viewBox="0 0 92 66.495" enable-background="new 0 0 92 66.495" xml:space="preserve">
<g id="XMLID_1_">
	<g>
		<path fill="#F06191" d="M88.62,8.675l1.48-7.18l1.9,3.39l-2.76,13.46c-0.18,0.81-0.59,1.35-1.58,1.12l-9.43-1.96
			c-0.53-0.11-1.27-0.2-1.68,0.18l-2.81-0.08c0.19-0.23,0.3-0.55,0.36-0.9l1.61-8.35c0.18-0.96,1.04-0.67,1.85-0.5l9.43,1.97
			C88.04,10.015,88.47,9.535,88.62,8.675z"/>
		<path fill="#F06191" d="M76.28,18.215l-1.62,8.35c-0.15,0.87-0.58,1.35-1.63,1.16l-9.43-1.97c-0.48-0.13-1.21-0.17-1.62,0.17
			l-2.87-0.07c0.18-0.23,0.3-0.55,0.35-0.9l1.62-8.35c0.17-0.95,1.09-0.85,1.96-0.71l9.43,1.97c0.59,0.22,1,0.07,1.27-0.26
			l2.81,0.08C76.42,17.805,76.32,17.975,76.28,18.215z"/>
		<path fill="#F06191" d="M61.7,26.435l-1.67,8.38c-0.18,0.81-0.58,1.35-1.57,1.13l-9.43-1.97c-0.6-0.12-1.43-0.17-1.79,0.38
			l-2.77-0.13c0.07-0.08,0.12-0.16,0.17-0.25l1.8-9.11c0.24-1,1.16-0.89,1.96-0.72l9.43,1.97c0.6,0.23,1.01,0.08,1.28-0.26
			l2.87,0.07C61.84,26.045,61.74,26.215,61.7,26.435z"/>
		<path fill="#F06191" d="M47.24,34.355l-1.78,8.68c-0.18,0.81-0.58,1.35-1.57,1.12l-9.43-1.96c-0.53-0.11-1.28-0.2-1.69,0.18
			l-2.8-0.09c0.18-0.23,0.3-0.54,0.35-0.89l1.62-8.35c0.17-0.96,1.04-0.67,1.84-0.5l9.43,1.97c0.61,0.11,1.01-0.01,1.26-0.29
			L47.24,34.355z"/>
		<path fill="#F06191" d="M32.5,42.905l-1.61,8.35c-0.15,0.87-0.59,1.35-1.64,1.16l-9.42-1.97c-0.48-0.13-1.22-0.17-1.62,0.17
			l-2.88-0.07c0.18-0.23,0.3-0.55,0.36-0.9l1.61-8.35c0.18-0.96,1.1-0.85,1.96-0.71l9.43,1.96c0.6,0.23,1.01,0.08,1.28-0.26
			l2.8,0.09C32.64,42.495,32.54,42.665,32.5,42.905z"/>
		<path fill="#F06191" d="M17.93,51.125l-1.68,8.38c-0.18,0.81-0.58,1.35-1.57,1.13l-9.43-1.97c-0.71-0.15-1.78-0.24-1.95,0.71
			l-1.37,7.12L0,63.035l2.67-13.48c0.23-1,1.15-0.89,1.96-0.72l9.43,1.97c0.59,0.23,1.01,0.08,1.27-0.26l2.88,0.07
			C18.07,50.735,17.97,50.905,17.93,51.125z"/>
	</g>
	<g>
	</g>
</g>
</svg>
