<svg height='100px' width='100px'  fill="#443a8b" xmlns="http://www.w3.org/2000/svg" xmlns:xlink="http://www.w3.org/1999/xlink" version="1.1" x="0px" y="0px" viewBox="0 0 128 128" style="enable-background:new 0 0 128 128;" xml:space="preserve"><g><path d="M39.2,54.7c-1.3-1.3-2.8-1.9-4.6-1.9H9c-1.8,0-3.4,0.6-4.6,1.9c-1.3,1.3-1.9,2.8-1.9,4.6V104c0,1.8,0.6,3.4,1.9,4.6   c1.3,1.3,2.8,1.9,4.6,1.9h25.6c1.8,0,3.4-0.6,4.6-1.9c1.3-1.3,1.9-2.8,1.9-4.6V59.3C41.2,57.5,40.5,55.9,39.2,54.7z M23.7,108   c-0.5,0.5-1.1,0.8-1.8,0.8c-0.7,0-1.3-0.3-1.9-0.8c-0.5-0.5-0.8-1.1-0.8-1.8c0-0.7,0.3-1.3,0.8-1.8c0.5-0.5,1.1-0.8,1.9-0.8   c0.7,0,1.3,0.3,1.8,0.8c0.5,0.5,0.8,1.1,0.8,1.8C24.5,106.9,24.2,107.5,23.7,108z M37.2,98.8c0,0.7-0.3,1.3-0.8,1.8   c-0.5,0.5-1.1,0.8-1.8,0.8H9c-0.7,0-1.3-0.3-1.8-0.8c-0.5-0.5-0.8-1.1-0.8-1.8V59.3c0-0.7,0.3-1.3,0.8-1.8C7.7,57,8.3,56.7,9,56.7   h25.6c0.7,0,1.3,0.3,1.8,0.8c0.5,0.5,0.8,1.1,0.8,1.8V98.8z"></path><path d="M119.3,17.4H28.4c-3.4,0-6.2,2.8-6.2,6.2v25.9h6.7V26.2c0-1,0.6-1.8,1.4-1.8h87.1c0.8,0,1.4,0.8,1.4,1.8v56.6H44.3v10.9   h15.2l-5.8,14.8c-0.4,1,0.3,2,1.4,2h37.3c1,0,1.7-1,1.4-2l-5.6-14.9h31.1c3.4,0,6.2-2.8,6.2-6.2V23.6   C125.5,20.2,122.7,17.4,119.3,17.4z"></path></g></svg>